<?xml version="1.0" encoding="UTF-8" standalone="no"?>
<!DOCTYPE svg PUBLIC "-//W3C//DTD SVG 1.1//EN"
 "http://www.w3.org/Graphics/SVG/1.1/DTD/svg11.dtd">
<!-- Generated by graphviz version 2.30.1 (20201013.1554)
 -->
<!-- Title: snakemake_dag Pages: 1 -->
<svg width="1555pt" height="692pt"
 viewBox="0.00 0.00 1555.00 692.00" xmlns="http://www.w3.org/2000/svg" xmlns:xlink="http://www.w3.org/1999/xlink">
<g id="graph0" class="graph" transform="scale(1 1) rotate(0) translate(4 688)">
<title>snakemake_dag</title>
<polygon fill="white" stroke="white" points="-4,5 -4,-688 1552,-688 1552,5 -4,5"/>
<!-- 0 -->
<g id="node1" class="node"><title>0</title>
<path fill="none" stroke="#d85656" stroke-width="2" d="M1282,-36C1282,-36 1252,-36 1252,-36 1246,-36 1240,-30 1240,-24 1240,-24 1240,-12 1240,-12 1240,-6 1246,-0 1252,-0 1252,-0 1282,-0 1282,-0 1288,-0 1294,-6 1294,-12 1294,-12 1294,-24 1294,-24 1294,-30 1288,-36 1282,-36"/>
<text text-anchor="middle" x="1267" y="-15.5" font-family="sans" font-size="10.00">all</text>
</g>
<!-- 1 -->
<g id="node2" class="node"><title>1</title>
<path fill="none" stroke="#56a9d8" stroke-width="2" d="M1316,-108C1316,-108 1278,-108 1278,-108 1272,-108 1266,-102 1266,-96 1266,-96 1266,-84 1266,-84 1266,-78 1272,-72 1278,-72 1278,-72 1316,-72 1316,-72 1322,-72 1328,-78 1328,-84 1328,-84 1328,-96 1328,-96 1328,-102 1322,-108 1316,-108"/>
<text text-anchor="middle" x="1297" y="-87.5" font-family="sans" font-size="10.00">overview</text>
</g>
<!-- 1&#45;&gt;0 -->
<g id="edge1" class="edge"><title>1&#45;&gt;0</title>
<path fill="none" stroke="grey" stroke-width="2" d="M1289.58,-71.6966C1286.21,-63.8132 1282.13,-54.3042 1278.38,-45.5464"/>
<polygon fill="grey" stroke="grey" points="1281.49,-43.9171 1274.33,-36.1043 1275.05,-46.6745 1281.49,-43.9171"/>
</g>
<!-- 2 -->
<g id="node3" class="node"><title>2</title>
<path fill="none" stroke="#56d86b" stroke-width="2" d="M1381,-252C1381,-252 1295,-252 1295,-252 1289,-252 1283,-246 1283,-240 1283,-240 1283,-228 1283,-228 1283,-222 1289,-216 1295,-216 1295,-216 1381,-216 1381,-216 1387,-216 1393,-222 1393,-228 1393,-228 1393,-240 1393,-240 1393,-246 1387,-252 1381,-252"/>
<text text-anchor="middle" x="1338" y="-231.5" font-family="sans" font-size="10.00">busco_supermatrix</text>
</g>
<!-- 2&#45;&gt;1 -->
<g id="edge7" class="edge"><title>2&#45;&gt;1</title>
<path fill="none" stroke="grey" stroke-width="2" d="M1328.02,-215.865C1322.52,-205.737 1316.02,-192.487 1312,-180 1305.49,-159.772 1301.66,-135.998 1299.51,-118.112"/>
<polygon fill="grey" stroke="grey" points="1302.98,-117.632 1298.4,-108.077 1296.02,-118.401 1302.98,-117.632"/>
</g>
<!-- 33 -->
<g id="node34" class="node"><title>33</title>
<path fill="none" stroke="#c6d856" stroke-width="2" d="M1388.25,-180C1388.25,-180 1333.75,-180 1333.75,-180 1327.75,-180 1321.75,-174 1321.75,-168 1321.75,-168 1321.75,-156 1321.75,-156 1321.75,-150 1327.75,-144 1333.75,-144 1333.75,-144 1388.25,-144 1388.25,-144 1394.25,-144 1400.25,-150 1400.25,-156 1400.25,-156 1400.25,-168 1400.25,-168 1400.25,-174 1394.25,-180 1388.25,-180"/>
<text text-anchor="middle" x="1361" y="-159.5" font-family="sans" font-size="10.00">busco_iqtree</text>
</g>
<!-- 2&#45;&gt;33 -->
<g id="edge61" class="edge"><title>2&#45;&gt;33</title>
<path fill="none" stroke="grey" stroke-width="2" d="M1343.69,-215.697C1346.25,-207.898 1349.33,-198.509 1352.18,-189.829"/>
<polygon fill="grey" stroke="grey" points="1355.58,-190.697 1355.38,-180.104 1348.93,-188.512 1355.58,-190.697"/>
</g>
<!-- 3 -->
<g id="node4" class="node"><title>3</title>
<path fill="none" stroke="#56d8d8" stroke-width="2" d="M1370.25,-324C1370.25,-324 1305.75,-324 1305.75,-324 1299.75,-324 1293.75,-318 1293.75,-312 1293.75,-312 1293.75,-300 1293.75,-300 1293.75,-294 1299.75,-288 1305.75,-288 1305.75,-288 1370.25,-288 1370.25,-288 1376.25,-288 1382.25,-294 1382.25,-300 1382.25,-300 1382.25,-312 1382.25,-312 1382.25,-318 1376.25,-324 1370.25,-324"/>
<text text-anchor="middle" x="1338" y="-303.5" font-family="sans" font-size="10.00">get_sequences</text>
</g>
<!-- 3&#45;&gt;2 -->
<g id="edge8" class="edge"><title>3&#45;&gt;2</title>
<path fill="none" stroke="grey" stroke-width="2" d="M1338,-287.697C1338,-279.983 1338,-270.712 1338,-262.112"/>
<polygon fill="grey" stroke="grey" points="1341.5,-262.104 1338,-252.104 1334.5,-262.104 1341.5,-262.104"/>
</g>
<!-- 4 -->
<g id="node5" class="node"><title>4</title>
<path fill="none" stroke="#d8c356" stroke-width="2" d="M887.25,-396C887.25,-396 806.75,-396 806.75,-396 800.75,-396 794.75,-390 794.75,-384 794.75,-384 794.75,-372 794.75,-372 794.75,-366 800.75,-360 806.75,-360 806.75,-360 887.25,-360 887.25,-360 893.25,-360 899.25,-366 899.25,-372 899.25,-372 899.25,-384 899.25,-384 899.25,-390 893.25,-396 887.25,-396"/>
<text text-anchor="middle" x="847" y="-375.5" font-family="sans" font-size="10.00">busco_collect_dbs</text>
</g>
<!-- 4&#45;&gt;3 -->
<g id="edge9" class="edge"><title>4&#45;&gt;3</title>
<path fill="none" stroke="grey" stroke-width="2" d="M899.546,-369.509C993.353,-356.135 1188.7,-328.286 1283.73,-314.737"/>
<polygon fill="grey" stroke="grey" points="1284.3,-318.191 1293.71,-313.314 1283.32,-311.261 1284.3,-318.191"/>
</g>
<!-- 35 -->
<g id="node36" class="node"><title>35</title>
<path fill="none" stroke="#569ad8" stroke-width="2" d="M913.25,-252C913.25,-252 836.75,-252 836.75,-252 830.75,-252 824.75,-246 824.75,-240 824.75,-240 824.75,-228 824.75,-228 824.75,-222 830.75,-216 836.75,-216 836.75,-216 913.25,-216 913.25,-216 919.25,-216 925.25,-222 925.25,-228 925.25,-228 925.25,-240 925.25,-240 925.25,-246 919.25,-252 913.25,-252"/>
<text text-anchor="middle" x="875" y="-231.5" font-family="sans" font-size="10.00">plot_by_category</text>
</g>
<!-- 4&#45;&gt;35 -->
<g id="edge64" class="edge"><title>4&#45;&gt;35</title>
<path fill="none" stroke="grey" stroke-width="2" d="M850.377,-359.871C855.171,-335.564 863.993,-290.819 869.673,-262.013"/>
<polygon fill="grey" stroke="grey" points="873.11,-262.677 871.611,-252.189 866.242,-261.323 873.11,-262.677"/>
</g>
<!-- 36 -->
<g id="node37" class="node"><title>36</title>
<path fill="none" stroke="#5682d8" stroke-width="2" d="M1160.25,-180C1160.25,-180 1023.75,-180 1023.75,-180 1017.75,-180 1011.75,-174 1011.75,-168 1011.75,-168 1011.75,-156 1011.75,-156 1011.75,-150 1017.75,-144 1023.75,-144 1023.75,-144 1160.25,-144 1160.25,-144 1166.25,-144 1172.25,-150 1172.25,-156 1172.25,-156 1172.25,-168 1172.25,-168 1172.25,-174 1166.25,-180 1160.25,-180"/>
<text text-anchor="middle" x="1092" y="-159.5" font-family="sans" font-size="10.00">plot_sample_busco_threshold</text>
</g>
<!-- 4&#45;&gt;36 -->
<g id="edge65" class="edge"><title>4&#45;&gt;36</title>
<path fill="none" stroke="grey" stroke-width="2" d="M866.635,-359.849C910.09,-321.893 1014.49,-230.701 1064.45,-187.061"/>
<polygon fill="grey" stroke="grey" points="1067.04,-189.447 1072.27,-180.232 1062.44,-184.175 1067.04,-189.447"/>
</g>
<!-- 5 -->
<g id="node6" class="node"><title>5</title>
<path fill="none" stroke="#56c1d8" stroke-width="2" d="M1230.25,-468C1230.25,-468 1123.75,-468 1123.75,-468 1117.75,-468 1111.75,-462 1111.75,-456 1111.75,-456 1111.75,-444 1111.75,-444 1111.75,-438 1117.75,-432 1123.75,-432 1123.75,-432 1230.25,-432 1230.25,-432 1236.25,-432 1242.25,-438 1242.25,-444 1242.25,-444 1242.25,-456 1242.25,-456 1242.25,-462 1236.25,-468 1230.25,-468"/>
<text text-anchor="middle" x="1177" y="-453" font-family="sans" font-size="10.00">identify_best_duplicate</text>
<text text-anchor="middle" x="1177" y="-442" font-family="sans" font-size="10.00">busco_mode: genome</text>
</g>
<!-- 5&#45;&gt;4 -->
<g id="edge11" class="edge"><title>5&#45;&gt;4</title>
<path fill="none" stroke="grey" stroke-width="2" d="M1111.57,-434.096C1108.33,-433.382 1105.13,-432.68 1102,-432 1036.34,-417.737 960.992,-402.175 909.323,-391.628"/>
<polygon fill="grey" stroke="grey" points="909.812,-388.156 899.314,-389.587 908.414,-395.014 909.812,-388.156"/>
</g>
<!-- 6 -->
<g id="node7" class="node"><title>6</title>
<path fill="none" stroke="#afd856" stroke-width="2" d="M1380.25,-540C1380.25,-540 1315.75,-540 1315.75,-540 1309.75,-540 1303.75,-534 1303.75,-528 1303.75,-528 1303.75,-516 1303.75,-516 1303.75,-510 1309.75,-504 1315.75,-504 1315.75,-504 1380.25,-504 1380.25,-504 1386.25,-504 1392.25,-510 1392.25,-516 1392.25,-516 1392.25,-528 1392.25,-528 1392.25,-534 1386.25,-540 1380.25,-540"/>
<text text-anchor="middle" x="1348" y="-519.5" font-family="sans" font-size="10.00">busco_load_db</text>
</g>
<!-- 6&#45;&gt;5 -->
<g id="edge19" class="edge"><title>6&#45;&gt;5</title>
<path fill="none" stroke="grey" stroke-width="2" d="M1306.17,-503.876C1282.58,-494.222 1252.94,-482.087 1228,-471.878"/>
<polygon fill="grey" stroke="grey" points="1229.28,-468.618 1218.7,-468.068 1226.62,-475.096 1229.28,-468.618"/>
</g>
<!-- 7 -->
<g id="node8" class="node"><title>7</title>
<path fill="none" stroke="#80d856" stroke-width="2" d="M1461.25,-612C1461.25,-612 1300.75,-612 1300.75,-612 1294.75,-612 1288.75,-606 1288.75,-600 1288.75,-600 1288.75,-588 1288.75,-588 1288.75,-582 1294.75,-576 1300.75,-576 1300.75,-576 1461.25,-576 1461.25,-576 1467.25,-576 1473.25,-582 1473.25,-588 1473.25,-588 1473.25,-600 1473.25,-600 1473.25,-606 1467.25,-612 1461.25,-612"/>
<text text-anchor="middle" x="1381" y="-597" font-family="sans" font-size="10.00">busco_run</text>
<text text-anchor="middle" x="1381" y="-586" font-family="sans" font-size="10.00">sample: Amphibalanus_amphitrite</text>
</g>
<!-- 7&#45;&gt;6 -->
<g id="edge21" class="edge"><title>7&#45;&gt;6</title>
<path fill="none" stroke="grey" stroke-width="2" d="M1372.84,-575.697C1369.09,-567.728 1364.55,-558.1 1360.38,-549.264"/>
<polygon fill="grey" stroke="grey" points="1363.49,-547.657 1356.06,-540.104 1357.16,-550.642 1363.49,-547.657"/>
</g>
<!-- 32 -->
<g id="node33" class="node"><title>32</title>
<path fill="none" stroke="#59d856" stroke-width="2" d="M917.25,-540C917.25,-540 844.75,-540 844.75,-540 838.75,-540 832.75,-534 832.75,-528 832.75,-528 832.75,-516 832.75,-516 832.75,-510 838.75,-504 844.75,-504 844.75,-504 917.25,-504 917.25,-504 923.25,-504 929.25,-510 929.25,-516 929.25,-516 929.25,-528 929.25,-528 929.25,-534 923.25,-540 917.25,-540"/>
<text text-anchor="middle" x="881" y="-519.5" font-family="sans" font-size="10.00">busco_summary</text>
</g>
<!-- 7&#45;&gt;32 -->
<g id="edge53" class="edge"><title>7&#45;&gt;32</title>
<path fill="none" stroke="grey" stroke-width="2" d="M1288.74,-577.369C1285.46,-576.894 1282.2,-576.435 1279,-576 1131.24,-555.905 1089.23,-569.301 939.385,-540.072"/>
<polygon fill="grey" stroke="grey" points="939.846,-536.595 929.357,-538.084 938.485,-543.462 939.846,-536.595"/>
</g>
<!-- 8 -->
<g id="node9" class="node"><title>8</title>
<path fill="none" stroke="#d6d856" stroke-width="2" d="M800.25,-684C800.25,-684 687.75,-684 687.75,-684 681.75,-684 675.75,-678 675.75,-672 675.75,-672 675.75,-660 675.75,-660 675.75,-654 681.75,-648 687.75,-648 687.75,-648 800.25,-648 800.25,-648 806.25,-648 812.25,-654 812.25,-660 812.25,-660 812.25,-672 812.25,-672 812.25,-678 806.25,-684 800.25,-684"/>
<text text-anchor="middle" x="744" y="-669" font-family="sans" font-size="10.00">busco_download</text>
<text text-anchor="middle" x="744" y="-658" font-family="sans" font-size="10.00">lineage: metazoa_odb10</text>
</g>
<!-- 8&#45;&gt;7 -->
<g id="edge22" class="edge"><title>8&#45;&gt;7</title>
<path fill="none" stroke="grey" stroke-width="2" d="M812.575,-659.673C912.583,-651.579 1104.51,-634.819 1278.63,-611.993"/>
<polygon fill="grey" stroke="grey" points="1279.29,-615.436 1288.75,-610.657 1278.38,-608.496 1279.29,-615.436"/>
</g>
<!-- 9 -->
<g id="node10" class="node"><title>9</title>
<path fill="none" stroke="#d88556" stroke-width="2" d="M588,-540C588,-540 428,-540 428,-540 422,-540 416,-534 416,-528 416,-528 416,-516 416,-516 416,-510 422,-504 428,-504 428,-504 588,-504 588,-504 594,-504 600,-510 600,-516 600,-516 600,-528 600,-528 600,-534 594,-540 588,-540"/>
<text text-anchor="middle" x="508" y="-519.5" font-family="sans" font-size="10.00">build_diamond_ancestral_variants</text>
</g>
<!-- 8&#45;&gt;9 -->
<g id="edge23" class="edge"><title>8&#45;&gt;9</title>
<path fill="none" stroke="grey" stroke-width="2" d="M675.594,-663.259C538.135,-659.051 238.842,-646.043 208,-612 197.257,-600.143 197.717,-588.258 208,-576 209.649,-574.034 319.654,-554.957 405.97,-540.247"/>
<polygon fill="grey" stroke="grey" points="406.566,-543.696 415.837,-538.567 405.391,-536.796 406.566,-543.696"/>
</g>
<!-- 12 -->
<g id="node13" class="node"><title>12</title>
<path fill="none" stroke="#80d856" stroke-width="2" d="M148.25,-612C148.25,-612 11.75,-612 11.75,-612 5.75,-612 -0.25,-606 -0.25,-600 -0.25,-600 -0.25,-588 -0.25,-588 -0.25,-582 5.75,-576 11.75,-576 11.75,-576 148.25,-576 148.25,-576 154.25,-576 160.25,-582 160.25,-588 160.25,-588 160.25,-600 160.25,-600 160.25,-606 154.25,-612 148.25,-612"/>
<text text-anchor="middle" x="80" y="-597" font-family="sans" font-size="10.00">busco_run</text>
<text text-anchor="middle" x="80" y="-586" font-family="sans" font-size="10.00">sample: Homarus_gammarus</text>
</g>
<!-- 8&#45;&gt;12 -->
<g id="edge27" class="edge"><title>8&#45;&gt;12</title>
<path fill="none" stroke="grey" stroke-width="2" d="M675.471,-660.489C568.363,-653.017 354.907,-636.432 175,-612 173.495,-611.796 171.978,-611.585 170.451,-611.367"/>
<polygon fill="grey" stroke="grey" points="170.668,-607.861 160.262,-609.853 169.638,-614.785 170.668,-607.861"/>
</g>
<!-- 15 -->
<g id="node16" class="node"><title>15</title>
<path fill="none" stroke="#80d856" stroke-width="2" d="M385,-612C385,-612 229,-612 229,-612 223,-612 217,-606 217,-600 217,-600 217,-588 217,-588 217,-582 223,-576 229,-576 229,-576 385,-576 385,-576 391,-576 397,-582 397,-588 397,-588 397,-600 397,-600 397,-606 391,-612 385,-612"/>
<text text-anchor="middle" x="307" y="-597" font-family="sans" font-size="10.00">busco_run</text>
<text text-anchor="middle" x="307" y="-586" font-family="sans" font-size="10.00">sample: Semibalanus_balanoides</text>
</g>
<!-- 8&#45;&gt;15 -->
<g id="edge31" class="edge"><title>8&#45;&gt;15</title>
<path fill="none" stroke="grey" stroke-width="2" d="M675.655,-654.581C609.55,-644.436 506.26,-628.405 407,-612.153"/>
<polygon fill="grey" stroke="grey" points="407.534,-608.694 397.099,-610.529 406.4,-615.601 407.534,-608.694"/>
</g>
<!-- 18 -->
<g id="node19" class="node"><title>18</title>
<path fill="none" stroke="#80d856" stroke-width="2" d="M548.25,-612C548.25,-612 427.75,-612 427.75,-612 421.75,-612 415.75,-606 415.75,-600 415.75,-600 415.75,-588 415.75,-588 415.75,-582 421.75,-576 427.75,-576 427.75,-576 548.25,-576 548.25,-576 554.25,-576 560.25,-582 560.25,-588 560.25,-588 560.25,-600 560.25,-600 560.25,-606 554.25,-612 548.25,-612"/>
<text text-anchor="middle" x="488" y="-597" font-family="sans" font-size="10.00">busco_run</text>
<text text-anchor="middle" x="488" y="-586" font-family="sans" font-size="10.00">sample: Balanus_glandula</text>
</g>
<!-- 8&#45;&gt;18 -->
<g id="edge35" class="edge"><title>8&#45;&gt;18</title>
<path fill="none" stroke="grey" stroke-width="2" d="M681.703,-647.966C645.156,-637.972 598.806,-625.298 560.609,-614.854"/>
<polygon fill="grey" stroke="grey" points="561.146,-611.372 550.577,-612.111 559.299,-618.124 561.146,-611.372"/>
</g>
<!-- 21 -->
<g id="node22" class="node"><title>21</title>
<path fill="none" stroke="#80d856" stroke-width="2" d="M727.25,-612C727.25,-612 590.75,-612 590.75,-612 584.75,-612 578.75,-606 578.75,-600 578.75,-600 578.75,-588 578.75,-588 578.75,-582 584.75,-576 590.75,-576 590.75,-576 727.25,-576 727.25,-576 733.25,-576 739.25,-582 739.25,-588 739.25,-588 739.25,-600 739.25,-600 739.25,-606 733.25,-612 727.25,-612"/>
<text text-anchor="middle" x="659" y="-597" font-family="sans" font-size="10.00">busco_run</text>
<text text-anchor="middle" x="659" y="-586" font-family="sans" font-size="10.00">sample: Parasacculina_yatsui</text>
</g>
<!-- 8&#45;&gt;21 -->
<g id="edge39" class="edge"><title>8&#45;&gt;21</title>
<path fill="none" stroke="grey" stroke-width="2" d="M722.989,-647.697C712.284,-638.881 699.11,-628.032 687.504,-618.474"/>
<polygon fill="grey" stroke="grey" points="689.714,-615.76 679.77,-612.104 685.264,-621.163 689.714,-615.76"/>
</g>
<!-- 24 -->
<g id="node25" class="node"><title>24</title>
<path fill="none" stroke="#80d856" stroke-width="2" d="M888.25,-612C888.25,-612 769.75,-612 769.75,-612 763.75,-612 757.75,-606 757.75,-600 757.75,-600 757.75,-588 757.75,-588 757.75,-582 763.75,-576 769.75,-576 769.75,-576 888.25,-576 888.25,-576 894.25,-576 900.25,-582 900.25,-588 900.25,-588 900.25,-600 900.25,-600 900.25,-606 894.25,-612 888.25,-612"/>
<text text-anchor="middle" x="829" y="-597" font-family="sans" font-size="10.00">busco_run</text>
<text text-anchor="middle" x="829" y="-586" font-family="sans" font-size="10.00">sample: Sacculina_carcini</text>
</g>
<!-- 8&#45;&gt;24 -->
<g id="edge43" class="edge"><title>8&#45;&gt;24</title>
<path fill="none" stroke="grey" stroke-width="2" d="M765.011,-647.697C775.716,-638.881 788.89,-628.032 800.496,-618.474"/>
<polygon fill="grey" stroke="grey" points="802.736,-621.163 808.23,-612.104 798.286,-615.76 802.736,-621.163"/>
</g>
<!-- 27 -->
<g id="node28" class="node"><title>27</title>
<path fill="none" stroke="#68d856" stroke-width="2" d="M1083.25,-612C1083.25,-612 930.75,-612 930.75,-612 924.75,-612 918.75,-606 918.75,-600 918.75,-600 918.75,-588 918.75,-588 918.75,-582 924.75,-576 930.75,-576 930.75,-576 1083.25,-576 1083.25,-576 1089.25,-576 1095.25,-582 1095.25,-588 1095.25,-588 1095.25,-600 1095.25,-600 1095.25,-606 1089.25,-612 1083.25,-612"/>
<text text-anchor="middle" x="1007" y="-597" font-family="sans" font-size="10.00">busco_run_trans</text>
<text text-anchor="middle" x="1007" y="-586" font-family="sans" font-size="10.00">sample: Pollicipes_pollicipes_tsa</text>
</g>
<!-- 8&#45;&gt;27 -->
<g id="edge47" class="edge"><title>8&#45;&gt;27</title>
<path fill="none" stroke="grey" stroke-width="2" d="M808.001,-647.966C845.706,-637.93 893.57,-625.19 932.907,-614.721"/>
<polygon fill="grey" stroke="grey" points="933.949,-618.065 942.712,-612.111 932.148,-611.301 933.949,-618.065"/>
</g>
<!-- 30 -->
<g id="node31" class="node"><title>30</title>
<path fill="none" stroke="#68d856" stroke-width="2" d="M1258.25,-612C1258.25,-612 1125.75,-612 1125.75,-612 1119.75,-612 1113.75,-606 1113.75,-600 1113.75,-600 1113.75,-588 1113.75,-588 1113.75,-582 1119.75,-576 1125.75,-576 1125.75,-576 1258.25,-576 1258.25,-576 1264.25,-576 1270.25,-582 1270.25,-588 1270.25,-588 1270.25,-600 1270.25,-600 1270.25,-606 1264.25,-612 1258.25,-612"/>
<text text-anchor="middle" x="1192" y="-597" font-family="sans" font-size="10.00">busco_run_trans</text>
<text text-anchor="middle" x="1192" y="-586" font-family="sans" font-size="10.00">sample: Lepas_anatifera_tsa</text>
</g>
<!-- 8&#45;&gt;30 -->
<g id="edge51" class="edge"><title>8&#45;&gt;30</title>
<path fill="none" stroke="grey" stroke-width="2" d="M812.488,-655.844C882.824,-646.231 995.707,-630.222 1103.29,-612.08"/>
<polygon fill="grey" stroke="grey" points="1104.08,-615.497 1113.35,-610.374 1102.91,-608.595 1104.08,-615.497"/>
</g>
<!-- 31 -->
<g id="node32" class="node"><title>31</title>
<path fill="none" stroke="#566bd8" stroke-width="2" d="M1535,-396C1535,-396 1469,-396 1469,-396 1463,-396 1457,-390 1457,-384 1457,-384 1457,-372 1457,-372 1457,-366 1463,-360 1469,-360 1469,-360 1535,-360 1535,-360 1541,-360 1547,-366 1547,-372 1547,-372 1547,-384 1547,-384 1547,-390 1541,-396 1535,-396"/>
<text text-anchor="middle" x="1502" y="-375.5" font-family="sans" font-size="10.00">set_min_genes</text>
</g>
<!-- 8&#45;&gt;31 -->
<g id="edge52" class="edge"><title>8&#45;&gt;31</title>
<path fill="none" stroke="grey" stroke-width="2" d="M812.386,-665.039C986.274,-664.456 1434.93,-658.423 1482,-612 1537.21,-557.554 1521.17,-454.663 1509.47,-405.915"/>
<polygon fill="grey" stroke="grey" points="1512.83,-404.939 1506.99,-396.099 1506.04,-406.652 1512.83,-404.939"/>
</g>
<!-- 9&#45;&gt;5 -->
<g id="edge20" class="edge"><title>9&#45;&gt;5</title>
<path fill="none" stroke="grey" stroke-width="2" d="M600.147,-505.124C603.13,-504.727 606.087,-504.351 609,-504 823.818,-478.136 882.924,-499.7 1101.47,-467.92"/>
<polygon fill="grey" stroke="grey" points="1102.28,-471.339 1111.66,-466.416 1101.26,-464.413 1102.28,-471.339"/>
</g>
<!-- 10 -->
<g id="node11" class="node"><title>10</title>
<path fill="none" stroke="#56c1d8" stroke-width="2" d="M144.25,-468C144.25,-468 37.75,-468 37.75,-468 31.75,-468 25.75,-462 25.75,-456 25.75,-456 25.75,-444 25.75,-444 25.75,-438 31.75,-432 37.75,-432 37.75,-432 144.25,-432 144.25,-432 150.25,-432 156.25,-438 156.25,-444 156.25,-444 156.25,-456 156.25,-456 156.25,-462 150.25,-468 144.25,-468"/>
<text text-anchor="middle" x="91" y="-453" font-family="sans" font-size="10.00">identify_best_duplicate</text>
<text text-anchor="middle" x="91" y="-442" font-family="sans" font-size="10.00">busco_mode: genome</text>
</g>
<!-- 9&#45;&gt;10 -->
<g id="edge25" class="edge"><title>9&#45;&gt;10</title>
<path fill="none" stroke="grey" stroke-width="2" d="M415.992,-505.592C412.62,-505.051 409.281,-504.518 406,-504 302.162,-487.592 273.097,-488.093 166.207,-468.155"/>
<polygon fill="grey" stroke="grey" points="166.787,-464.703 156.312,-466.293 165.492,-471.582 166.787,-464.703"/>
</g>
<!-- 13 -->
<g id="node14" class="node"><title>13</title>
<path fill="none" stroke="#56c1d8" stroke-width="2" d="M293.25,-468C293.25,-468 186.75,-468 186.75,-468 180.75,-468 174.75,-462 174.75,-456 174.75,-456 174.75,-444 174.75,-444 174.75,-438 180.75,-432 186.75,-432 186.75,-432 293.25,-432 293.25,-432 299.25,-432 305.25,-438 305.25,-444 305.25,-444 305.25,-456 305.25,-456 305.25,-462 299.25,-468 293.25,-468"/>
<text text-anchor="middle" x="240" y="-453" font-family="sans" font-size="10.00">identify_best_duplicate</text>
<text text-anchor="middle" x="240" y="-442" font-family="sans" font-size="10.00">busco_mode: genome</text>
</g>
<!-- 9&#45;&gt;13 -->
<g id="edge29" class="edge"><title>9&#45;&gt;13</title>
<path fill="none" stroke="grey" stroke-width="2" d="M442.783,-503.966C404.279,-493.909 355.38,-481.136 315.247,-470.654"/>
<polygon fill="grey" stroke="grey" points="316.07,-467.252 305.51,-468.111 314.301,-474.024 316.07,-467.252"/>
</g>
<!-- 16 -->
<g id="node17" class="node"><title>16</title>
<path fill="none" stroke="#56c1d8" stroke-width="2" d="M442.25,-468C442.25,-468 335.75,-468 335.75,-468 329.75,-468 323.75,-462 323.75,-456 323.75,-456 323.75,-444 323.75,-444 323.75,-438 329.75,-432 335.75,-432 335.75,-432 442.25,-432 442.25,-432 448.25,-432 454.25,-438 454.25,-444 454.25,-444 454.25,-456 454.25,-456 454.25,-462 448.25,-468 442.25,-468"/>
<text text-anchor="middle" x="389" y="-453" font-family="sans" font-size="10.00">identify_best_duplicate</text>
<text text-anchor="middle" x="389" y="-442" font-family="sans" font-size="10.00">busco_mode: genome</text>
</g>
<!-- 9&#45;&gt;16 -->
<g id="edge33" class="edge"><title>9&#45;&gt;16</title>
<path fill="none" stroke="grey" stroke-width="2" d="M478.889,-503.876C463.33,-494.724 443.981,-483.342 427.224,-473.485"/>
<polygon fill="grey" stroke="grey" points="428.617,-470.243 418.223,-468.19 425.067,-476.277 428.617,-470.243"/>
</g>
<!-- 19 -->
<g id="node20" class="node"><title>19</title>
<path fill="none" stroke="#56c1d8" stroke-width="2" d="M591.25,-468C591.25,-468 484.75,-468 484.75,-468 478.75,-468 472.75,-462 472.75,-456 472.75,-456 472.75,-444 472.75,-444 472.75,-438 478.75,-432 484.75,-432 484.75,-432 591.25,-432 591.25,-432 597.25,-432 603.25,-438 603.25,-444 603.25,-444 603.25,-456 603.25,-456 603.25,-462 597.25,-468 591.25,-468"/>
<text text-anchor="middle" x="538" y="-453" font-family="sans" font-size="10.00">identify_best_duplicate</text>
<text text-anchor="middle" x="538" y="-442" font-family="sans" font-size="10.00">busco_mode: genome</text>
</g>
<!-- 9&#45;&gt;19 -->
<g id="edge37" class="edge"><title>9&#45;&gt;19</title>
<path fill="none" stroke="grey" stroke-width="2" d="M515.416,-503.697C518.794,-495.813 522.87,-486.304 526.623,-477.546"/>
<polygon fill="grey" stroke="grey" points="529.947,-478.675 530.67,-468.104 523.513,-475.917 529.947,-478.675"/>
</g>
<!-- 22 -->
<g id="node23" class="node"><title>22</title>
<path fill="none" stroke="#56c1d8" stroke-width="2" d="M740.25,-468C740.25,-468 633.75,-468 633.75,-468 627.75,-468 621.75,-462 621.75,-456 621.75,-456 621.75,-444 621.75,-444 621.75,-438 627.75,-432 633.75,-432 633.75,-432 740.25,-432 740.25,-432 746.25,-432 752.25,-438 752.25,-444 752.25,-444 752.25,-456 752.25,-456 752.25,-462 746.25,-468 740.25,-468"/>
<text text-anchor="middle" x="687" y="-453" font-family="sans" font-size="10.00">identify_best_duplicate</text>
<text text-anchor="middle" x="687" y="-442" font-family="sans" font-size="10.00">busco_mode: genome</text>
</g>
<!-- 9&#45;&gt;22 -->
<g id="edge41" class="edge"><title>9&#45;&gt;22</title>
<path fill="none" stroke="grey" stroke-width="2" d="M551.788,-503.876C576.585,-494.179 607.781,-481.98 633.958,-471.743"/>
<polygon fill="grey" stroke="grey" points="635.315,-474.97 643.354,-468.068 632.766,-468.451 635.315,-474.97"/>
</g>
<!-- 25 -->
<g id="node26" class="node"><title>25</title>
<path fill="none" stroke="#56c1d8" stroke-width="2" d="M911,-468C911,-468 783,-468 783,-468 777,-468 771,-462 771,-456 771,-456 771,-444 771,-444 771,-438 777,-432 783,-432 783,-432 911,-432 911,-432 917,-432 923,-438 923,-444 923,-444 923,-456 923,-456 923,-462 917,-468 911,-468"/>
<text text-anchor="middle" x="847" y="-453" font-family="sans" font-size="10.00">identify_best_duplicate</text>
<text text-anchor="middle" x="847" y="-442" font-family="sans" font-size="10.00">busco_mode: transcriptome</text>
</g>
<!-- 9&#45;&gt;25 -->
<g id="edge45" class="edge"><title>9&#45;&gt;25</title>
<path fill="none" stroke="grey" stroke-width="2" d="M590.495,-503.966C642.141,-493.301 708.572,-479.584 760.888,-468.781"/>
<polygon fill="grey" stroke="grey" points="761.733,-472.181 770.819,-466.731 760.318,-465.325 761.733,-472.181"/>
</g>
<!-- 28 -->
<g id="node29" class="node"><title>28</title>
<path fill="none" stroke="#56c1d8" stroke-width="2" d="M1081,-468C1081,-468 953,-468 953,-468 947,-468 941,-462 941,-456 941,-456 941,-444 941,-444 941,-438 947,-432 953,-432 953,-432 1081,-432 1081,-432 1087,-432 1093,-438 1093,-444 1093,-444 1093,-456 1093,-456 1093,-462 1087,-468 1081,-468"/>
<text text-anchor="middle" x="1017" y="-453" font-family="sans" font-size="10.00">identify_best_duplicate</text>
<text text-anchor="middle" x="1017" y="-442" font-family="sans" font-size="10.00">busco_mode: transcriptome</text>
</g>
<!-- 9&#45;&gt;28 -->
<g id="edge49" class="edge"><title>9&#45;&gt;28</title>
<path fill="none" stroke="grey" stroke-width="2" d="M600.166,-505.269C603.144,-504.831 606.094,-504.406 609,-504 748.841,-484.454 787.544,-489.92 930.573,-468.148"/>
<polygon fill="grey" stroke="grey" points="931.249,-471.586 940.6,-466.604 930.184,-464.667 931.249,-471.586"/>
</g>
<!-- 10&#45;&gt;4 -->
<g id="edge12" class="edge"><title>10&#45;&gt;4</title>
<path fill="none" stroke="grey" stroke-width="2" d="M156.269,-433.453C159.213,-432.927 162.133,-432.438 165,-432 391.432,-397.388 663.805,-384.846 784.357,-380.765"/>
<polygon fill="grey" stroke="grey" points="784.627,-384.258 794.505,-380.429 784.395,-377.262 784.627,-384.258"/>
</g>
<!-- 11 -->
<g id="node12" class="node"><title>11</title>
<path fill="none" stroke="#afd856" stroke-width="2" d="M115.25,-540C115.25,-540 50.75,-540 50.75,-540 44.75,-540 38.75,-534 38.75,-528 38.75,-528 38.75,-516 38.75,-516 38.75,-510 44.75,-504 50.75,-504 50.75,-504 115.25,-504 115.25,-504 121.25,-504 127.25,-510 127.25,-516 127.25,-516 127.25,-528 127.25,-528 127.25,-534 121.25,-540 115.25,-540"/>
<text text-anchor="middle" x="83" y="-519.5" font-family="sans" font-size="10.00">busco_load_db</text>
</g>
<!-- 11&#45;&gt;10 -->
<g id="edge24" class="edge"><title>11&#45;&gt;10</title>
<path fill="none" stroke="grey" stroke-width="2" d="M84.9775,-503.697C85.8591,-495.983 86.9186,-486.712 87.9014,-478.112"/>
<polygon fill="grey" stroke="grey" points="91.387,-478.437 89.0452,-468.104 84.4323,-477.642 91.387,-478.437"/>
</g>
<!-- 12&#45;&gt;11 -->
<g id="edge26" class="edge"><title>12&#45;&gt;11</title>
<path fill="none" stroke="grey" stroke-width="2" d="M80.7416,-575.697C81.0722,-567.983 81.4695,-558.712 81.838,-550.112"/>
<polygon fill="grey" stroke="grey" points="85.3355,-550.245 82.267,-540.104 78.3419,-549.945 85.3355,-550.245"/>
</g>
<!-- 12&#45;&gt;32 -->
<g id="edge54" class="edge"><title>12&#45;&gt;32</title>
<path fill="none" stroke="grey" stroke-width="2" d="M160.468,-581.394C176.206,-579.384 192.602,-577.471 208,-576 477.233,-550.276 551.425,-585.916 822.321,-539.842"/>
<polygon fill="grey" stroke="grey" points="823.194,-543.243 832.455,-538.096 822.005,-536.345 823.194,-543.243"/>
</g>
<!-- 13&#45;&gt;4 -->
<g id="edge13" class="edge"><title>13&#45;&gt;4</title>
<path fill="none" stroke="grey" stroke-width="2" d="M305.281,-433.531C308.222,-432.983 311.138,-432.469 314,-432 482.84,-404.326 684.302,-389.054 784.283,-382.653"/>
<polygon fill="grey" stroke="grey" points="784.751,-386.13 794.51,-382.006 784.31,-379.144 784.751,-386.13"/>
</g>
<!-- 14 -->
<g id="node15" class="node"><title>14</title>
<path fill="none" stroke="#afd856" stroke-width="2" d="M274.25,-540C274.25,-540 209.75,-540 209.75,-540 203.75,-540 197.75,-534 197.75,-528 197.75,-528 197.75,-516 197.75,-516 197.75,-510 203.75,-504 209.75,-504 209.75,-504 274.25,-504 274.25,-504 280.25,-504 286.25,-510 286.25,-516 286.25,-516 286.25,-528 286.25,-528 286.25,-534 280.25,-540 274.25,-540"/>
<text text-anchor="middle" x="242" y="-519.5" font-family="sans" font-size="10.00">busco_load_db</text>
</g>
<!-- 14&#45;&gt;13 -->
<g id="edge28" class="edge"><title>14&#45;&gt;13</title>
<path fill="none" stroke="grey" stroke-width="2" d="M241.506,-503.697C241.285,-495.983 241.02,-486.712 240.775,-478.112"/>
<polygon fill="grey" stroke="grey" points="244.273,-478 240.489,-468.104 237.276,-478.2 244.273,-478"/>
</g>
<!-- 15&#45;&gt;14 -->
<g id="edge30" class="edge"><title>15&#45;&gt;14</title>
<path fill="none" stroke="grey" stroke-width="2" d="M290.933,-575.697C283.061,-567.22 273.445,-556.864 264.827,-547.583"/>
<polygon fill="grey" stroke="grey" points="267.252,-545.051 257.883,-540.104 262.122,-549.814 267.252,-545.051"/>
</g>
<!-- 15&#45;&gt;32 -->
<g id="edge55" class="edge"><title>15&#45;&gt;32</title>
<path fill="none" stroke="grey" stroke-width="2" d="M397.06,-577.205C400.073,-576.782 403.06,-576.379 406,-576 587.256,-552.656 638.385,-573.569 822.428,-539.859"/>
<polygon fill="grey" stroke="grey" points="823.246,-543.267 832.436,-537.996 821.965,-536.385 823.246,-543.267"/>
</g>
<!-- 16&#45;&gt;4 -->
<g id="edge14" class="edge"><title>16&#45;&gt;4</title>
<path fill="none" stroke="grey" stroke-width="2" d="M454.305,-433.667C457.239,-433.082 460.148,-432.523 463,-432 575.531,-411.35 707.947,-394.754 784.212,-385.933"/>
<polygon fill="grey" stroke="grey" points="785.057,-389.359 794.592,-384.741 784.258,-382.405 785.057,-389.359"/>
</g>
<!-- 17 -->
<g id="node18" class="node"><title>17</title>
<path fill="none" stroke="#afd856" stroke-width="2" d="M385.25,-540C385.25,-540 320.75,-540 320.75,-540 314.75,-540 308.75,-534 308.75,-528 308.75,-528 308.75,-516 308.75,-516 308.75,-510 314.75,-504 320.75,-504 320.75,-504 385.25,-504 385.25,-504 391.25,-504 397.25,-510 397.25,-516 397.25,-516 397.25,-528 397.25,-528 397.25,-534 391.25,-540 385.25,-540"/>
<text text-anchor="middle" x="353" y="-519.5" font-family="sans" font-size="10.00">busco_load_db</text>
</g>
<!-- 17&#45;&gt;16 -->
<g id="edge32" class="edge"><title>17&#45;&gt;16</title>
<path fill="none" stroke="grey" stroke-width="2" d="M361.899,-503.697C365.997,-495.728 370.949,-486.1 375.493,-477.264"/>
<polygon fill="grey" stroke="grey" points="378.742,-478.598 380.203,-468.104 372.517,-475.396 378.742,-478.598"/>
</g>
<!-- 18&#45;&gt;17 -->
<g id="edge34" class="edge"><title>18&#45;&gt;17</title>
<path fill="none" stroke="grey" stroke-width="2" d="M454.975,-575.876C436.915,-566.512 414.355,-554.814 395.049,-544.803"/>
<polygon fill="grey" stroke="grey" points="396.64,-541.686 386.152,-540.19 393.418,-547.9 396.64,-541.686"/>
</g>
<!-- 18&#45;&gt;32 -->
<g id="edge56" class="edge"><title>18&#45;&gt;32</title>
<path fill="none" stroke="grey" stroke-width="2" d="M560.378,-577.562C563.287,-577.02 566.17,-576.497 569,-576 678.118,-556.838 709.779,-563.677 822.635,-539.88"/>
<polygon fill="grey" stroke="grey" points="823.669,-543.237 832.713,-537.719 822.202,-536.393 823.669,-543.237"/>
</g>
<!-- 19&#45;&gt;4 -->
<g id="edge15" class="edge"><title>19&#45;&gt;4</title>
<path fill="none" stroke="grey" stroke-width="2" d="M603.367,-433.968C606.284,-433.302 609.172,-432.644 612,-432 670.631,-418.654 737.528,-403.582 784.913,-392.932"/>
<polygon fill="grey" stroke="grey" points="785.729,-396.336 794.718,-390.728 784.194,-389.506 785.729,-396.336"/>
</g>
<!-- 20 -->
<g id="node21" class="node"><title>20</title>
<path fill="none" stroke="#afd856" stroke-width="2" d="M695.25,-540C695.25,-540 630.75,-540 630.75,-540 624.75,-540 618.75,-534 618.75,-528 618.75,-528 618.75,-516 618.75,-516 618.75,-510 624.75,-504 630.75,-504 630.75,-504 695.25,-504 695.25,-504 701.25,-504 707.25,-510 707.25,-516 707.25,-516 707.25,-528 707.25,-528 707.25,-534 701.25,-540 695.25,-540"/>
<text text-anchor="middle" x="663" y="-519.5" font-family="sans" font-size="10.00">busco_load_db</text>
</g>
<!-- 20&#45;&gt;19 -->
<g id="edge36" class="edge"><title>20&#45;&gt;19</title>
<path fill="none" stroke="grey" stroke-width="2" d="M632.422,-503.876C615.926,-494.639 595.376,-483.131 577.664,-473.212"/>
<polygon fill="grey" stroke="grey" points="579.131,-470.022 568.696,-468.19 575.711,-476.13 579.131,-470.022"/>
</g>
<!-- 21&#45;&gt;20 -->
<g id="edge38" class="edge"><title>21&#45;&gt;20</title>
<path fill="none" stroke="grey" stroke-width="2" d="M659.989,-575.697C660.43,-567.983 660.959,-558.712 661.451,-550.112"/>
<polygon fill="grey" stroke="grey" points="664.946,-550.288 662.023,-540.104 657.958,-549.888 664.946,-550.288"/>
</g>
<!-- 21&#45;&gt;32 -->
<g id="edge57" class="edge"><title>21&#45;&gt;32</title>
<path fill="none" stroke="grey" stroke-width="2" d="M713.023,-575.966C746.199,-565.505 788.69,-552.107 822.635,-541.403"/>
<polygon fill="grey" stroke="grey" points="823.936,-544.663 832.421,-538.318 821.831,-537.987 823.936,-544.663"/>
</g>
<!-- 22&#45;&gt;4 -->
<g id="edge16" class="edge"><title>22&#45;&gt;4</title>
<path fill="none" stroke="grey" stroke-width="2" d="M726.14,-431.876C748.013,-422.307 775.457,-410.3 798.662,-400.148"/>
<polygon fill="grey" stroke="grey" points="800.228,-403.283 807.987,-396.068 797.422,-396.87 800.228,-403.283"/>
</g>
<!-- 23 -->
<g id="node24" class="node"><title>23</title>
<path fill="none" stroke="#afd856" stroke-width="2" d="M802.25,-540C802.25,-540 737.75,-540 737.75,-540 731.75,-540 725.75,-534 725.75,-528 725.75,-528 725.75,-516 725.75,-516 725.75,-510 731.75,-504 737.75,-504 737.75,-504 802.25,-504 802.25,-504 808.25,-504 814.25,-510 814.25,-516 814.25,-516 814.25,-528 814.25,-528 814.25,-534 808.25,-540 802.25,-540"/>
<text text-anchor="middle" x="770" y="-519.5" font-family="sans" font-size="10.00">busco_load_db</text>
</g>
<!-- 23&#45;&gt;22 -->
<g id="edge40" class="edge"><title>23&#45;&gt;22</title>
<path fill="none" stroke="grey" stroke-width="2" d="M749.483,-503.697C739.131,-494.965 726.414,-484.24 715.161,-474.75"/>
<polygon fill="grey" stroke="grey" points="717.182,-471.876 707.281,-468.104 712.669,-477.227 717.182,-471.876"/>
</g>
<!-- 24&#45;&gt;23 -->
<g id="edge42" class="edge"><title>24&#45;&gt;23</title>
<path fill="none" stroke="grey" stroke-width="2" d="M814.416,-575.697C807.342,-567.305 798.717,-557.07 790.955,-547.861"/>
<polygon fill="grey" stroke="grey" points="793.537,-545.495 784.417,-540.104 788.185,-550.006 793.537,-545.495"/>
</g>
<!-- 24&#45;&gt;32 -->
<g id="edge58" class="edge"><title>24&#45;&gt;32</title>
<path fill="none" stroke="grey" stroke-width="2" d="M841.854,-575.697C848.025,-567.389 855.537,-557.277 862.324,-548.141"/>
<polygon fill="grey" stroke="grey" points="865.14,-550.219 868.294,-540.104 859.521,-546.045 865.14,-550.219"/>
</g>
<!-- 25&#45;&gt;4 -->
<g id="edge17" class="edge"><title>25&#45;&gt;4</title>
<path fill="none" stroke="grey" stroke-width="2" d="M847,-431.697C847,-423.983 847,-414.712 847,-406.112"/>
<polygon fill="grey" stroke="grey" points="850.5,-406.104 847,-396.104 843.5,-406.104 850.5,-406.104"/>
</g>
<!-- 26 -->
<g id="node27" class="node"><title>26</title>
<path fill="none" stroke="#97d856" stroke-width="2" d="M1054.25,-540C1054.25,-540 959.75,-540 959.75,-540 953.75,-540 947.75,-534 947.75,-528 947.75,-528 947.75,-516 947.75,-516 947.75,-510 953.75,-504 959.75,-504 959.75,-504 1054.25,-504 1054.25,-504 1060.25,-504 1066.25,-510 1066.25,-516 1066.25,-516 1066.25,-528 1066.25,-528 1066.25,-534 1060.25,-540 1054.25,-540"/>
<text text-anchor="middle" x="1007" y="-519.5" font-family="sans" font-size="10.00">busco_load_db_trans</text>
</g>
<!-- 26&#45;&gt;25 -->
<g id="edge44" class="edge"><title>26&#45;&gt;25</title>
<path fill="none" stroke="grey" stroke-width="2" d="M967.86,-503.876C945.987,-494.307 918.543,-482.3 895.338,-472.148"/>
<polygon fill="grey" stroke="grey" points="896.578,-468.87 886.013,-468.068 893.772,-475.283 896.578,-468.87"/>
</g>
<!-- 27&#45;&gt;26 -->
<g id="edge46" class="edge"><title>27&#45;&gt;26</title>
<path fill="none" stroke="grey" stroke-width="2" d="M1007,-575.697C1007,-567.983 1007,-558.712 1007,-550.112"/>
<polygon fill="grey" stroke="grey" points="1010.5,-550.104 1007,-540.104 1003.5,-550.104 1010.5,-550.104"/>
</g>
<!-- 27&#45;&gt;32 -->
<g id="edge59" class="edge"><title>27&#45;&gt;32</title>
<path fill="none" stroke="grey" stroke-width="2" d="M976.177,-575.876C959.55,-566.639 938.835,-555.131 920.981,-545.212"/>
<polygon fill="grey" stroke="grey" points="922.383,-541.987 911.942,-540.19 918.983,-548.106 922.383,-541.987"/>
</g>
<!-- 28&#45;&gt;4 -->
<g id="edge18" class="edge"><title>28&#45;&gt;4</title>
<path fill="none" stroke="grey" stroke-width="2" d="M975.413,-431.876C951.967,-422.222 922.496,-410.087 897.703,-399.878"/>
<polygon fill="grey" stroke="grey" points="899.031,-396.639 888.452,-396.068 896.366,-403.112 899.031,-396.639"/>
</g>
<!-- 29 -->
<g id="node30" class="node"><title>29</title>
<path fill="none" stroke="#97d856" stroke-width="2" d="M1215.25,-540C1215.25,-540 1120.75,-540 1120.75,-540 1114.75,-540 1108.75,-534 1108.75,-528 1108.75,-528 1108.75,-516 1108.75,-516 1108.75,-510 1114.75,-504 1120.75,-504 1120.75,-504 1215.25,-504 1215.25,-504 1221.25,-504 1227.25,-510 1227.25,-516 1227.25,-516 1227.25,-528 1227.25,-528 1227.25,-534 1221.25,-540 1215.25,-540"/>
<text text-anchor="middle" x="1168" y="-519.5" font-family="sans" font-size="10.00">busco_load_db_trans</text>
</g>
<!-- 29&#45;&gt;28 -->
<g id="edge48" class="edge"><title>29&#45;&gt;28</title>
<path fill="none" stroke="grey" stroke-width="2" d="M1131.06,-503.876C1110.51,-494.349 1084.75,-482.407 1062.91,-472.283"/>
<polygon fill="grey" stroke="grey" points="1064.36,-469.099 1053.82,-468.068 1061.42,-475.45 1064.36,-469.099"/>
</g>
<!-- 30&#45;&gt;29 -->
<g id="edge50" class="edge"><title>30&#45;&gt;29</title>
<path fill="none" stroke="grey" stroke-width="2" d="M1186.07,-575.697C1183.39,-567.898 1180.17,-558.509 1177.2,-549.829"/>
<polygon fill="grey" stroke="grey" points="1180.42,-548.429 1173.86,-540.104 1173.8,-550.699 1180.42,-548.429"/>
</g>
<!-- 30&#45;&gt;32 -->
<g id="edge60" class="edge"><title>30&#45;&gt;32</title>
<path fill="none" stroke="grey" stroke-width="2" d="M1113.65,-577.402C1056.38,-565.871 982.582,-550.712 939.245,-540.185"/>
<polygon fill="grey" stroke="grey" points="939.982,-536.762 929.433,-537.747 938.294,-543.555 939.982,-536.762"/>
</g>
<!-- 31&#45;&gt;3 -->
<g id="edge10" class="edge"><title>31&#45;&gt;3</title>
<path fill="none" stroke="grey" stroke-width="2" d="M1461.88,-359.876C1439.36,-350.264 1411.08,-338.193 1387.23,-328.013"/>
<polygon fill="grey" stroke="grey" points="1388.56,-324.775 1377.99,-324.068 1385.81,-331.213 1388.56,-324.775"/>
</g>
<!-- 32&#45;&gt;0 -->
<g id="edge2" class="edge"><title>32&#45;&gt;0</title>
<path fill="none" stroke="grey" stroke-width="2" d="M929.363,-505.947C932.273,-505.238 935.167,-504.581 938,-504 1006.59,-489.941 1204.01,-519.905 1251,-468 1310.07,-402.754 1248.14,-159.563 1257,-72 1257.86,-63.4844 1259.38,-54.293 1260.98,-45.994"/>
<polygon fill="grey" stroke="grey" points="1264.44,-46.5754 1263.01,-36.0773 1257.58,-45.1748 1264.44,-46.5754"/>
</g>
<!-- 34 -->
<g id="node35" class="node"><title>34</title>
<path fill="none" stroke="#d86e56" stroke-width="2" d="M1471.25,-108C1471.25,-108 1396.75,-108 1396.75,-108 1390.75,-108 1384.75,-102 1384.75,-96 1384.75,-96 1384.75,-84 1384.75,-84 1384.75,-78 1390.75,-72 1396.75,-72 1396.75,-72 1471.25,-72 1471.25,-72 1477.25,-72 1483.25,-78 1483.25,-84 1483.25,-84 1483.25,-96 1483.25,-96 1483.25,-102 1477.25,-108 1471.25,-108"/>
<text text-anchor="middle" x="1434" y="-87.5" font-family="sans" font-size="10.00">build_busco_tree</text>
</g>
<!-- 32&#45;&gt;34 -->
<g id="edge63" class="edge"><title>32&#45;&gt;34</title>
<path fill="none" stroke="grey" stroke-width="2" d="M929.355,-505.91C932.267,-505.209 935.164,-504.565 938,-504 1090.06,-473.711 1138.24,-518.02 1285,-468 1356.21,-443.728 1429,-454.237 1429,-379 1429,-379 1429,-379 1429,-233 1429,-192.971 1431.01,-146.635 1432.48,-118.07"/>
<polygon fill="grey" stroke="grey" points="1435.98,-118.214 1433.01,-108.042 1428.99,-117.843 1435.98,-118.214"/>
</g>
<!-- 33&#45;&gt;0 -->
<g id="edge3" class="edge"><title>33&#45;&gt;0</title>
<path fill="none" stroke="grey" stroke-width="2" d="M1359.69,-143.902C1357.53,-124.911 1351.85,-94.0289 1337,-72 1328.21,-58.957 1315.13,-47.8177 1302.65,-39.1665"/>
<polygon fill="grey" stroke="grey" points="1304.45,-36.1566 1294.17,-33.582 1300.6,-42.0036 1304.45,-36.1566"/>
</g>
<!-- 33&#45;&gt;34 -->
<g id="edge62" class="edge"><title>33&#45;&gt;34</title>
<path fill="none" stroke="grey" stroke-width="2" d="M1379.04,-143.697C1388.06,-135.05 1399.12,-124.449 1408.94,-115.027"/>
<polygon fill="grey" stroke="grey" points="1411.37,-117.552 1416.16,-108.104 1406.52,-112.499 1411.37,-117.552"/>
</g>
<!-- 34&#45;&gt;0 -->
<g id="edge4" class="edge"><title>34&#45;&gt;0</title>
<path fill="none" stroke="grey" stroke-width="2" d="M1393.15,-71.8761C1365.71,-60.3766 1329.88,-45.3579 1303.42,-34.2665"/>
<polygon fill="grey" stroke="grey" points="1304.71,-31.0096 1294.13,-30.3717 1302,-37.4654 1304.71,-31.0096"/>
</g>
<!-- 35&#45;&gt;0 -->
<g id="edge5" class="edge"><title>35&#45;&gt;0</title>
<path fill="none" stroke="grey" stroke-width="2" d="M897.17,-215.713C921.928,-196.83 963.581,-166.304 1002,-144 1080.52,-98.4121 1178.38,-55.6268 1230.43,-33.8988"/>
<polygon fill="grey" stroke="grey" points="1232.01,-37.0316 1239.91,-29.965 1229.33,-30.5665 1232.01,-37.0316"/>
</g>
<!-- 36&#45;&gt;0 -->
<g id="edge6" class="edge"><title>36&#45;&gt;0</title>
<path fill="none" stroke="grey" stroke-width="2" d="M1113.11,-143.871C1144.25,-118.604 1202.6,-71.2543 1237.82,-42.6788"/>
<polygon fill="grey" stroke="grey" points="1240.26,-45.208 1245.82,-36.1893 1235.85,-39.7724 1240.26,-45.208"/>
</g>
</g>
</svg>
